<?xml version="1.0" encoding="UTF-8"?>
<svg id="Layer_2" data-name="Layer 2" xmlns="http://www.w3.org/2000/svg" viewBox="0 0 313.5 312.1">
  <defs>
    <style>
      .cls-1 {
        fill: none;
        stroke: #de8550;
        stroke-linecap: round;
        stroke-miterlimit: 10;
        stroke-width: 5px;
      }
    </style>
  </defs>
  <g id="main-layer">
    <path id="circleTwo" class="cls-1" d="M18.84,85.17c9.22-17.88,21.83-33.74,36.97-46.72,5.6-4.8,11.55-9.21,17.81-13.19M2.5,171.86c2.45,24.14,10.44,46.65,22.69,66.22M37.65,255.26c8.1,9.7,17.37,18.39,27.58,25.86M87.26,294.56c7.96,3.99,16.31,7.31,24.99,9.9,7.84,2.34,15.94,4.07,24.24,5.14M235.58,289.23c7.98-4.75,15.49-10.19,22.46-16.24,8.8-7.64,16.72-16.26,23.61-25.69,4.7-6.43,8.92-13.24,12.6-20.38M311,145.05c-.75-10.73-2.6-21.16-5.43-31.18s-6.64-19.62-11.32-28.7M285.24,69.93c-3.28-4.89-6.83-9.59-10.63-14.06M241.48,26.57c-11.54-7.58-24.14-13.66-37.55-17.97M136.49,2.5c-15.21,1.97-29.74,6.14-43.24,12.2"/>
  </g>
</svg>