<?xml version="1.0" encoding="UTF-8"?>
<svg id="Layer_2" data-name="Layer 2" xmlns="http://www.w3.org/2000/svg" viewBox="0 0 314.63 310.98">
  <defs>
    <style>
      .cls-1 {
        fill: none;
        stroke: #de8550;
        stroke-linecap: round;
        stroke-miterlimit: 10;
        stroke-width: 5px;
      }
    </style>
  </defs>
  <g id="main-layer">
    <g id="circle-1">
      <g id="circle-1-2" data-name="circle-1">
        <path class="cls-1" d="M10.84,106.33c2.43-7.07,5.36-13.9,8.75-20.47"/>
      </g>
      <path id="circle-1-3" data-name="circle-1" class="cls-1" d="M2.5,152.79c.41-16.23,3.31-31.84,8.34-46.46"/>
      <path id="circle-1-4" data-name="circle-1" class="cls-1" d="M38.4,255.95c-4.53-5.42-8.7-11.16-12.46-17.18"/>
      <path id="circle-1-5" data-name="circle-1" class="cls-1" d="M65.98,281.81c-10.21-7.47-19.48-16.16-27.58-25.86"/>
      <path id="circle-1-6" data-name="circle-1" class="cls-1" d="M88.01,295.25c-7.73-3.88-15.1-8.38-22.03-13.45"/>
      <path id="circle-1-7" data-name="circle-1" class="cls-1" d="M112.99,305.15c-8.67-2.58-17.03-5.91-24.99-9.9"/>
      <path id="circle-1-8" data-name="circle-1" class="cls-1" d="M217.87,299.28c-9.42,4.01-19.32,7.11-29.58,9.2"/>
      <path id="circle-1-9" data-name="circle-1" class="cls-1" d="M258.79,273.68c-6.97,6.05-14.49,11.5-22.46,16.24"/>
      <path id="circle-1-10" data-name="circle-1" class="cls-1" d="M308.42,190.59c-2.91,13.04-7.46,25.46-13.42,37.02"/>
      <path id="circle-1-11" data-name="circle-1" class="cls-1" d="M311.74,145.75c1.07,14.95-.11,30.55-3.33,44.84"/>
      <path id="circle-1-12" data-name="circle-1" class="cls-1" d="M285.99,70.62c3.28,4.89,6.29,9.98,9,15.25"/>
      <path id="circle-1-13" data-name="circle-1" class="cls-1" d="M275.35,56.56c3.8,4.48,7.35,9.17,10.63,14.06"/>
      <path id="circle-1-14" data-name="circle-1" class="cls-1" d="M204.67,9.29c13.41,4.3,26.01,10.39,37.55,17.97"/>
      <path id="circle-1-15" data-name="circle-1" class="cls-1" d="M170.95,2.5c11.66,1.02,22.95,3.33,33.72,6.79"/>
      <path id="circle-1-16" data-name="circle-1" class="cls-1" d="M94,15.39c13.5-6.05,28.02-10.23,43.24-12.2"/>
    </g>
  </g>
</svg>