<?xml version="1.0" encoding="UTF-8"?>
<svg id="Layer_2" data-name="Layer 2" xmlns="http://www.w3.org/2000/svg" viewBox="0 0 314.63 310.98">
  <defs>
    <style>
      .cls-1 {
        fill: none;
        stroke: #de8550;
        stroke-linecap: round;
        stroke-miterlimit: 10;
        stroke-width: 5px;
      }
    </style>
  </defs>
  <g id="main-layer">
    <path id="circleOne" class="cls-1" d="M2.5,152.79c.41-16.23,3.31-31.84,8.34-46.46,2.43-7.07,5.36-13.9,8.75-20.47M25.94,238.77c3.77,6.02,7.93,11.76,12.46,17.18,8.1,9.7,17.37,18.39,27.58,25.86,6.93,5.07,14.29,9.57,22.03,13.45s16.31,7.31,24.99,9.9M188.29,308.48c10.27-2.09,20.16-5.19,29.58-9.2M236.33,289.92c7.98-4.75,15.49-10.19,22.46-16.24M294.99,227.61c5.97-11.57,10.52-23.99,13.42-37.02,3.22-14.29,4.4-29.89,3.33-44.84M294.99,85.87c-2.72-5.26-5.72-10.35-9-15.25s-6.83-9.59-10.63-14.06M242.22,27.26c-11.54-7.58-24.14-13.66-37.55-17.97-10.77-3.46-22.06-5.77-33.72-6.79M137.23,3.19c-15.21,1.97-29.74,6.14-43.24,12.2"/>
  </g>
</svg>