<?xml version="1.0" encoding="UTF-8"?>
<svg id="Layer_2" data-name="Layer 2" xmlns="http://www.w3.org/2000/svg" viewBox="0 0 314.68 312.8">
  <defs>
    <style>
      .cls-1 {
        fill: none;
        stroke: #de8550;
        stroke-linecap: round;
        stroke-miterlimit: 10;
        stroke-width: 5px;
      }
    </style>
  </defs>
  <g id="main-layer">
    <path id="circleThree" class="cls-1" d="M56.61,39.14c5.6-4.8,11.55-9.21,17.81-13.19M19.64,85.87c-3.38,6.56-6.31,13.4-8.75,20.47-5.03,14.62-7.94,30.23-8.34,46.46-.03,1.31-.05,2.63-.05,3.95,0,5.34.27,10.61.8,15.8M25.98,238.77c3.77,6.02,7.93,11.76,12.46,17.18M66.03,281.81c6.93,5.07,14.29,9.57,22.03,13.45M113.04,305.15c7.84,2.34,15.94,4.07,24.24,5.14M188.34,308.48c10.27-2.09,20.16-5.19,29.58-9.2,6.38-2.72,12.55-5.85,18.46-9.37M295.04,227.61c5.97-11.57,10.52-23.99,13.42-37.02,2.43-10.89,3.71-22.22,3.71-33.84,0-3.7-.13-7.37-.38-11M286.04,70.62c-3.28-4.89-6.83-9.59-10.63-14.06-9.57-11.27-20.73-21.15-33.13-29.3M204.72,9.29c-10.77-3.46-22.06-5.77-33.72-6.79"/>
  </g>
</svg>