<?xml version="1.0" encoding="UTF-8"?>
<svg id="Layer_2" data-name="Layer 2" xmlns="http://www.w3.org/2000/svg" viewBox="0 0 314.68 312.8">
  <defs>
    <style>
      .cls-1 {
        fill: none;
        stroke: #de8550;
        stroke-linecap: round;
        stroke-miterlimit: 10;
        stroke-width: 5px;
      }
    </style>
  </defs>
  <g id="main-layer">
    <g id="circle-3">
      <path id="circle-1" class="cls-1" d="M56.61,39.14c5.6-4.8,11.55-9.21,17.81-13.19"/>
      <path id="circle-1-2" data-name="circle-1" class="cls-1" d="M10.89,106.33c2.43-7.07,5.36-13.9,8.75-20.47"/>
      <path id="circle-1-3" data-name="circle-1" class="cls-1" d="M2.55,152.79c.41-16.23,3.31-31.84,8.34-46.46"/>
      <path id="circle-1-4" data-name="circle-1" class="cls-1" d="M3.3,172.55c-.53-5.2-.8-10.47-.8-15.8,0-1.32.02-2.64.05-3.95"/>
      <path id="circle-1-5" data-name="circle-1" class="cls-1" d="M38.45,255.95c-4.53-5.42-8.7-11.16-12.46-17.18"/>
      <path id="circle-1-6" data-name="circle-1" class="cls-1" d="M88.05,295.25c-7.73-3.88-15.1-8.38-22.03-13.45"/>
      <path id="circle-1-7" data-name="circle-1" class="cls-1" d="M137.28,310.3c-8.3-1.07-16.4-2.81-24.24-5.14"/>
      <path id="circle-1-8" data-name="circle-1" class="cls-1" d="M217.92,299.28c-9.42,4.01-19.32,7.11-29.58,9.2"/>
      <path id="circle-1-9" data-name="circle-1" class="cls-1" d="M236.38,289.92c-5.91,3.52-12.08,6.65-18.46,9.37"/>
      <path id="circle-1-10" data-name="circle-1" class="cls-1" d="M308.47,190.59c-2.91,13.04-7.46,25.46-13.42,37.02"/>
      <path id="circle-1-11" data-name="circle-1" class="cls-1" d="M311.79,145.75c.25,3.63.38,7.3.38,11,0,11.62-1.28,22.95-3.71,33.84"/>
      <path id="circle-1-12" data-name="circle-1" class="cls-1" d="M275.4,56.56c3.8,4.48,7.35,9.17,10.63,14.06"/>
      <path id="circle-1-13" data-name="circle-1" class="cls-1" d="M242.27,27.26c12.4,8.15,23.56,18.03,33.13,29.3"/>
      <path id="circle-1-14" data-name="circle-1" class="cls-1" d="M171,2.5c11.66,1.02,22.95,3.33,33.72,6.79"/>
    </g>
  </g>
</svg>