<?xml version="1.0" encoding="UTF-8"?>
<svg id="Layer_2" data-name="Layer 2" xmlns="http://www.w3.org/2000/svg" viewBox="0 0 399.99 399.99">
  <defs>
    <style>
      .cls-1 {
        fill: none;
        stroke: #de8550;
        stroke-linecap: round;
        stroke-miterlimit: 10;
        stroke-width: 5px;
      }
    </style>
  </defs>
  <g id="main-layer">
    <path id="circleFull" class="cls-1" d="M10.89,142.86c9.87-32.7,27.98-61.83,51.93-84.95M10.89,142.86c-4.24,14.07-6.96,28.79-7.96,43.99M2.93,186.85c-.29,4.34-.43,8.73-.43,13.14,0,5.66.24,11.25.7,16.79M3.2,216.78c1.26,14.99,4.2,29.51,8.62,43.36M11.83,260.14c6.43,20.12,15.99,38.85,28.12,55.59M39.95,315.74c13.64,18.83,30.52,35.15,49.82,48.16M89.77,363.89c14.49,9.77,30.35,17.66,47.23,23.34M137,387.23c12.1,4.07,24.73,7,37.75,8.66M174.75,395.89c8.27,1.05,16.69,1.6,25.24,1.6,13.97,0,27.6-1.45,40.75-4.21M240.74,393.28c21.55-4.52,41.81-12.56,60.15-23.48M300.89,369.81c12.15-7.23,23.45-15.73,33.74-25.32M334.63,344.49c7.64-7.12,14.72-14.85,21.15-23.09M355.78,321.4c11.87-15.21,21.57-32.21,28.61-50.53M384.39,270.87c8.46-22,13.1-45.89,13.1-70.87,0-3.63-.1-7.23-.29-10.81M397.2,189.18c-.86-16.02-3.64-31.54-8.1-46.32M389.1,142.86c-3.27-10.85-7.46-21.31-12.46-31.28M376.64,111.58c-5.87-11.71-12.87-22.75-20.86-32.98M355.79,78.6c-7.53-9.64-15.93-18.57-25.08-26.66M330.7,51.94c-17.41-15.38-37.56-27.74-59.62-36.26M271.08,15.68c-11.63-4.49-23.8-7.91-36.37-10.14M234.71,5.54c-11.27-2-22.87-3.04-34.72-3.04-9.36,0-18.57.65-27.59,1.91M172.41,4.41c-11.71,1.64-23.09,4.3-34.04,7.89M138.37,12.31c-12.81,4.2-25.03,9.68-36.54,16.28M101.83,28.58c-14.21,8.15-27.31,18.02-39.01,29.33"/>
    <path id="circleOne" class="cls-1" d="M2.93,186.85c1-15.2,3.72-29.92,7.96-43.99M39.95,315.74c13.64,18.83,30.52,35.15,49.82,48.16M137,387.23c12.1,4.07,24.73,7,37.75,8.66M300.89,369.81c12.15-7.23,23.45-15.73,33.74-25.32M355.78,321.4c11.87-15.21,21.57-32.21,28.61-50.53M389.1,142.86c-3.27-10.85-7.46-21.31-12.46-31.28M330.7,51.94c-17.41-15.38-37.56-27.74-59.62-36.26M101.83,28.58c-14.21,8.15-27.31,18.02-39.01,29.33"/>
    <path id="circleTwo" class="cls-1" d="M3.2,216.78c-.47-5.53-.7-11.13-.7-16.79,0-4.42.14-8.8.43-13.14M137,387.23c12.1,4.07,24.73,7,37.75,8.66M355.78,321.4c11.87-15.21,21.57-32.21,28.61-50.53M355.79,78.6c-7.53-9.64-15.93-18.57-25.08-26.66M234.71,5.54c-11.27-2-22.87-3.04-34.72-3.04-9.36,0-18.57.65-27.59,1.91"/>
    <path id="circleThree" class="cls-1" d="M11.83,260.14c-4.42-13.85-7.36-28.37-8.62-43.36M137,387.23c12.1,4.07,24.73,7,37.75,8.66M271.08,15.68c-11.63-4.49-23.8-7.91-36.37-10.14"/>
  </g>
</svg>